<svg width="2120" height="992" viewBox="0 0 2120 1292" fill="none" xmlns="http://www.w3.org/2000/svg">
<path d="M64.0625 901.937V822.25L415.625 266H473.438V389.438H434.375L168.75 809.75V816H642.187V901.937H64.0625ZM440.625 1066V877.719V840.609V266H532.812V1066H440.625Z" fill="#222328"/>
<path fill-rule="evenodd" clip-rule="evenodd" d="M1082.23 213C1131.17 212.942 1179.64 224.054 1224.87 245.7C1270.09 267.346 1311.19 299.103 1345.82 339.155L1346.25 339.648L1346.73 340.211C1416.46 421.073 1455.63 530.682 1455.65 644.969V645.533V646.025C1455.7 760.294 1416.62 869.92 1346.98 950.854L1346.49 951.346L1346.07 951.91C1276.08 1032.7 1181.29 1078.07 1082.48 1078.07C983.665 1078.07 888.88 1032.7 818.889 951.91L818.464 951.346L817.978 950.854C748.189 869.775 709 759.954 709 645.462C709 530.97 748.189 421.149 817.978 340.071V340.071L818.221 339.719H818.525C853.121 299.538 894.224 267.662 939.477 245.917C984.73 224.172 1033.24 212.986 1082.23 213V213ZM960.681 607.799L981.285 553.943H1058.96C1057.88 549.873 1056.15 546.075 1053.85 542.75C1051.31 538.977 1048.23 535.738 1044.74 533.175C1040.96 530.369 1036.87 528.167 1032.58 526.628C1028.12 524.958 1023.47 524.102 1018.78 524.094H960.499L981.102 470.239H1203.97L1183.37 524.094H1129.52C1131.75 526.029 1133.79 528.249 1135.6 530.712C1137.41 533.122 1139.04 535.713 1140.46 538.455C1141.78 541.066 1142.96 543.77 1143.98 546.551C1144.8 548.821 1145.41 551.179 1145.81 553.591H1204.15L1183.55 607.447H1141.01C1137.71 616.949 1133.05 625.733 1127.21 633.424C1120.92 641.771 1113.75 649.173 1105.88 655.459C1097.65 662.122 1088.83 667.74 1079.56 672.214C1070.24 676.542 1060.51 679.544 1050.57 681.154L1167.63 820.826H1075.06L970.649 688.124V638.845H1016.84C1021.31 638.839 1025.74 637.983 1029.97 636.31C1034.28 634.629 1038.37 632.26 1042.12 629.27C1045.7 626.562 1048.91 623.266 1051.66 619.485C1054.18 616.044 1056.1 612.077 1057.32 607.799H960.681ZM1082.23 332.256C1135.73 332.256 1188.02 350.63 1232.49 385.053C1276.97 419.476 1311.63 468.403 1332.1 525.647C1352.57 582.891 1357.93 645.88 1347.49 706.65C1337.06 767.419 1311.3 823.24 1273.48 867.052C1235.65 910.865 1187.46 940.701 1135 952.789C1082.53 964.877 1028.15 958.673 978.735 934.962C929.316 911.251 887.077 871.097 857.358 819.579C827.64 768.061 811.778 707.493 811.778 645.533C811.778 562.446 840.273 482.764 890.993 424.013C941.714 365.262 1010.51 332.256 1082.23 332.256V332.256ZM1098.46 301.774C1113.59 302.786 1128.62 305.139 1143.44 308.813L1154.74 259.534C1136.22 254.897 1117.39 252.048 1098.46 251.016V301.774V301.774ZM1174.74 318.599C1189.14 324.067 1203.16 330.798 1216.67 338.733L1238.55 294.804C1221.72 284.569 1204.15 276.042 1186.04 269.32L1174.74 318.599ZM1244.63 357.53C1257.3 366.937 1269.33 377.457 1280.61 388.998L1311.61 353.165C1297.6 338.345 1282.53 324.921 1266.57 313.037L1244.63 357.037V357.53ZM1303.58 416.102C1313.69 429.15 1322.92 443.084 1331.18 457.778L1369.16 432.434C1359.01 413.817 1347.53 396.225 1334.82 379.846L1303.89 415.75L1303.58 416.102ZM1347.4 490.162C1354.25 505.819 1360.06 522.058 1364.79 538.737L1407.33 525.643C1401.58 504.69 1394.3 484.342 1385.57 464.818L1347.65 490.162H1347.4ZM1373.17 574.641C1376.34 591.8 1378.38 609.216 1379.25 626.736H1423.07C1422.18 604.808 1419.72 583.003 1415.72 561.546L1373.17 574.641ZM1379.25 664.329C1378.38 681.849 1376.34 699.265 1373.17 716.424L1415.72 729.519C1419.72 708.062 1422.18 686.257 1423.07 664.329H1379.25ZM1365.03 752.68C1360.31 769.359 1354.5 785.598 1347.65 801.255L1385.57 826.599C1394.3 807.075 1401.58 786.727 1407.33 765.774L1364.79 752.68H1365.03ZM1331.42 833.639C1323.16 848.351 1313.91 862.286 1303.77 875.315L1334.76 911.219C1347.56 894.966 1359.15 877.492 1369.4 858.983L1331.42 833.639ZM1280.85 901.856C1269.59 913.589 1257.56 924.298 1244.87 933.887L1266.81 977.887C1282.76 965.98 1297.82 952.558 1311.85 937.759L1280.85 901.856ZM1216.92 952.684C1203.4 960.619 1189.38 967.35 1174.98 972.818L1186.28 1022.1C1204.38 1015.47 1221.95 1007.03 1238.8 996.895L1216.92 952.966V952.684ZM1143.98 982.533C1129.17 986.207 1114.13 988.561 1099.01 989.573V1040.33C1117.94 1039.3 1136.76 1036.45 1155.29 1031.81L1143.98 982.533ZM1066.55 989.573C1051.43 988.561 1036.39 986.207 1021.58 982.533L1010.27 1031.81C1028.8 1036.45 1047.62 1039.3 1066.55 1040.33V989.573ZM990.279 973.1C975.88 967.631 961.861 960.9 948.344 952.966L926.464 996.895C943.32 1007 960.887 1015.43 978.975 1022.1L990.279 972.818V973.1ZM920.386 934.169C907.7 924.58 895.671 913.871 884.406 902.137L852.863 938.111C866.873 952.931 881.939 966.355 897.899 978.239L919.839 934.239L920.386 934.169ZM860.764 875.315C850.635 862.268 841.39 848.334 833.111 833.639L795.126 858.983C805.385 877.492 816.973 894.966 829.768 911.219L860.764 875.315ZM817.066 801.255C810.32 785.588 804.61 769.349 799.988 752.68L757.444 765.774C763.196 786.727 770.475 807.075 779.202 826.599L817.127 801.255H817.066ZM791.297 716.776C788.125 699.617 786.093 682.201 785.219 664.681H741.642C742.533 686.609 744.993 708.414 748.996 729.871L791.54 716.776H791.297ZM785.219 627.088C786.093 609.568 788.125 592.152 791.297 574.993L748.753 561.898C744.848 583.248 742.469 604.934 741.642 626.736L785.219 627.088ZM799.988 538.385C804.709 521.706 810.52 505.467 817.37 489.81L779.445 464.466C770.635 483.981 763.274 504.329 757.444 525.291L799.988 538.385ZM833.536 457.426C841.698 442.764 850.8 428.832 860.764 415.75L829.829 379.846C817.02 396.085 805.43 413.561 795.186 432.082L833.111 457.426H833.536ZM883.859 388.998C895.125 377.287 907.154 366.602 919.839 357.037L897.899 313.037C881.953 324.944 866.889 338.366 852.863 353.165L883.859 388.998ZM947.797 338.24C961.326 330.474 975.345 323.908 989.732 318.599L978.428 269.32C960.33 275.952 942.761 284.384 925.917 294.522L947.797 338.451V338.24ZM1020.73 308.391C1035.54 304.717 1050.58 302.363 1065.7 301.351V251.016C1046.77 252.048 1027.95 254.897 1009.42 259.534L1020.73 308.813V308.391Z" fill="#222328"/>
<path d="M1541.06 901.937V822.25L1892.62 266H1950.44V389.438H1911.38L1645.75 809.75V816H2119.19V901.937H1541.06ZM1917.63 1066V877.719V840.609V266H2009.81V1066H1917.63Z" fill="#222328"/>
</svg>
